<svg width="320" height="1703" viewBox="0 0 320 1703" fill="none" xmlns="http://www.w3.org/2000/svg">
<path d="M132.969 1636.8L132.964 1636.79L132.964 1636.79L132.963 1636.79L129.439 1628.01L129.288 1627.64L128.887 1627.71L-290.391 1702.43C-295.724 1684.82 -291.579 1675.2 -288.955 1672.58L82.0004 1511.21L82.446 1511.02L82.2649 1510.57L67.1808 1473.01C66.0392 1470.17 64.966 1467.31 63.9978 1464.41C60.6736 1454.45 52.2972 1428.47 44.7523 1397.84C37.2053 1367.2 30.5 1331.94 30.5 1303.41V972.721V972.221H30H-148.13C-158.109 972.221 -167.878 973.166 -177.422 975.089C-405.911 1021.12 -835.048 1107.81 -895.1 1120.88C-896.53 1121.19 -897.942 1121.01 -899.013 1120.53C-900.095 1120.04 -900.753 1119.28 -900.861 1118.46C-906.476 1075.64 -873.706 1050.45 -856.022 1043.07C-856.018 1043.06 -856.014 1043.06 -856.01 1043.06L-73.4576 763.159L-73.4374 763.152L-73.4178 763.143L-13.8691 735.88C-5.90399 732.234 1.21967 727.845 7.27673 722.85L31.0283 703.26C32.5222 702.028 33.3844 700.456 33.3844 698.79V655.479V307.844C33.3844 290.819 35.5394 273.888 40.0467 257.476C48.196 227.803 62.4911 177.588 75.4709 141.237C85.7224 112.527 98.587 77.291 113.069 49.2345C120.311 35.2047 127.944 22.9976 135.839 14.3047C143.744 5.60014 151.838 0.5 160 0.5C168.162 0.5 176.35 5.6413 184.374 14.3986C192.386 23.1433 200.159 35.4124 207.494 49.4823C222.162 77.6184 235.027 112.855 244.526 141.228C256.563 177.185 270.874 226.468 279.332 256.25C284.221 273.465 286.616 291.277 286.616 309.177V655.479V698.789C286.616 700.456 287.478 702.028 288.972 703.26L312.724 722.85C318.78 727.845 325.904 732.233 333.868 735.88L393.418 763.143L393.437 763.152L393.458 763.159L1176.01 1043.06C1176.01 1043.06 1176.02 1043.06 1176.02 1043.07C1193.71 1050.46 1226.48 1075.64 1220.86 1118.46C1220.75 1119.28 1220.09 1120.04 1219.01 1120.53C1217.94 1121.01 1216.53 1121.19 1215.1 1120.88C1155.05 1107.81 725.909 1021.12 497.419 975.088C487.877 973.166 478.11 972.221 468.133 972.221H290H289.5V972.721V1303.41C289.5 1331.94 282.795 1367.2 275.248 1397.84C267.703 1428.47 259.326 1454.45 256.002 1464.41C255.034 1467.31 253.961 1470.17 252.819 1473.01L237.735 1510.57L237.554 1511.02L237.999 1511.21L607.476 1672.58C610.1 1675.2 614.245 1684.82 608.912 1702.43L191.113 1627.71L190.713 1627.64L190.561 1628.01L187.038 1636.79L187.036 1636.79L187.036 1636.79L187.031 1636.8L187.011 1636.85L186.991 1636.9C186.975 1636.93 186.953 1636.98 186.928 1637.04C186.853 1637.21 186.741 1637.46 186.592 1637.78C186.294 1638.42 185.847 1639.34 185.256 1640.44C184.072 1642.65 182.312 1645.58 180.006 1648.52C175.377 1654.41 168.631 1660.18 160 1660.18C151.369 1660.18 144.623 1654.41 139.994 1648.52C137.688 1645.58 135.928 1642.65 134.744 1640.44C134.153 1639.34 133.706 1638.42 133.408 1637.78C133.259 1637.46 133.147 1637.21 133.072 1637.04L133.027 1636.94L132.989 1636.85L132.969 1636.8Z" fill="url(#paint0_linear)" stroke="#BCBAF7"/>
<defs>
<linearGradient id="paint0_linear" x1="-902" y1="739.465" x2="1222" y2="739.465" gradientUnits="userSpaceOnUse">
<stop stop-color="#99BBFF"/>
<stop offset="0.489583" stop-color="#CCCCFF"/>
<stop offset="1" stop-color="#99BBFF"/>
</linearGradient>
</defs>
</svg>
